<mxfile host="app.diagrams.net" modified="2023-05-18T02:22:00.319Z" agent="Mozilla/5.0 (Macintosh; Intel Mac OS X 10_15_7) AppleWebKit/537.36 (KHTML, like Gecko) Chrome/113.0.0.0 Safari/537.36" etag="Co0oLRFmKiXkk5KtnGaU" version="21.3.2" type="github" pages="3">
  <diagram name="局部ER图" id="c6545cDlOgG6l57BLXd9">
    <mxGraphModel dx="2074" dy="1119" grid="0" gridSize="10" guides="1" tooltips="1" connect="1" arrows="1" fold="1" page="0" pageScale="1" pageWidth="827" pageHeight="1169" math="1" shadow="0">
      <root>
        <mxCell id="0" />
        <mxCell id="1" parent="0" />
        <mxCell id="wR3M16szGRIk-EZS97ZV-12" style="rounded=0;orthogonalLoop=1;jettySize=auto;html=1;exitX=0.75;exitY=1;exitDx=0;exitDy=0;entryX=0.5;entryY=0;entryDx=0;entryDy=0;endArrow=none;endFill=0;" parent="1" source="wR3M16szGRIk-EZS97ZV-1" target="wR3M16szGRIk-EZS97ZV-9" edge="1">
          <mxGeometry relative="1" as="geometry" />
        </mxCell>
        <mxCell id="wR3M16szGRIk-EZS97ZV-13" style="rounded=0;orthogonalLoop=1;jettySize=auto;html=1;exitX=1;exitY=0.5;exitDx=0;exitDy=0;endArrow=none;endFill=0;entryX=0;entryY=0.5;entryDx=0;entryDy=0;" parent="1" source="wR3M16szGRIk-EZS97ZV-1" target="wR3M16szGRIk-EZS97ZV-8" edge="1">
          <mxGeometry relative="1" as="geometry" />
        </mxCell>
        <mxCell id="wR3M16szGRIk-EZS97ZV-14" style="rounded=0;orthogonalLoop=1;jettySize=auto;html=1;exitX=0.25;exitY=0;exitDx=0;exitDy=0;entryX=0.5;entryY=1;entryDx=0;entryDy=0;endArrow=none;endFill=0;" parent="1" source="wR3M16szGRIk-EZS97ZV-1" target="wR3M16szGRIk-EZS97ZV-7" edge="1">
          <mxGeometry relative="1" as="geometry" />
        </mxCell>
        <mxCell id="wR3M16szGRIk-EZS97ZV-15" style="rounded=0;orthogonalLoop=1;jettySize=auto;html=1;exitX=0.5;exitY=0;exitDx=0;exitDy=0;entryX=0.5;entryY=1;entryDx=0;entryDy=0;endArrow=none;endFill=0;" parent="1" source="wR3M16szGRIk-EZS97ZV-1" target="wR3M16szGRIk-EZS97ZV-10" edge="1">
          <mxGeometry relative="1" as="geometry" />
        </mxCell>
        <mxCell id="wR3M16szGRIk-EZS97ZV-16" style="rounded=0;orthogonalLoop=1;jettySize=auto;html=1;exitX=0.75;exitY=0;exitDx=0;exitDy=0;entryX=0.5;entryY=1;entryDx=0;entryDy=0;endArrow=none;endFill=0;" parent="1" source="wR3M16szGRIk-EZS97ZV-1" target="wR3M16szGRIk-EZS97ZV-11" edge="1">
          <mxGeometry relative="1" as="geometry" />
        </mxCell>
        <mxCell id="wR3M16szGRIk-EZS97ZV-1" value="学籍经历" style="whiteSpace=wrap;html=1;align=center;" parent="1" vertex="1">
          <mxGeometry x="260" y="170" width="100" height="40" as="geometry" />
        </mxCell>
        <mxCell id="wR3M16szGRIk-EZS97ZV-2" value="学籍编号" style="ellipse;whiteSpace=wrap;html=1;align=center;" parent="1" vertex="1">
          <mxGeometry x="76" y="171" width="100" height="40" as="geometry" />
        </mxCell>
        <mxCell id="wR3M16szGRIk-EZS97ZV-5" value="小学" style="ellipse;whiteSpace=wrap;html=1;align=center;" parent="1" vertex="1">
          <mxGeometry x="137" y="257" width="100" height="40" as="geometry" />
        </mxCell>
        <mxCell id="wR3M16szGRIk-EZS97ZV-6" value="初中" style="ellipse;whiteSpace=wrap;html=1;align=center;" parent="1" vertex="1">
          <mxGeometry x="260" y="257" width="100" height="40" as="geometry" />
        </mxCell>
        <mxCell id="wR3M16szGRIk-EZS97ZV-7" value="本科" style="ellipse;whiteSpace=wrap;html=1;align=center;" parent="1" vertex="1">
          <mxGeometry x="137" y="84" width="100" height="40" as="geometry" />
        </mxCell>
        <mxCell id="wR3M16szGRIk-EZS97ZV-8" value="大专" style="ellipse;whiteSpace=wrap;html=1;align=center;" parent="1" vertex="1">
          <mxGeometry x="444" y="170" width="100" height="40" as="geometry" />
        </mxCell>
        <mxCell id="wR3M16szGRIk-EZS97ZV-9" value="高中" style="ellipse;whiteSpace=wrap;html=1;align=center;" parent="1" vertex="1">
          <mxGeometry x="383" y="257" width="100" height="40" as="geometry" />
        </mxCell>
        <mxCell id="wR3M16szGRIk-EZS97ZV-10" value="硕士" style="ellipse;whiteSpace=wrap;html=1;align=center;" parent="1" vertex="1">
          <mxGeometry x="260" y="82" width="100" height="40" as="geometry" />
        </mxCell>
        <mxCell id="wR3M16szGRIk-EZS97ZV-11" value="博士" style="ellipse;whiteSpace=wrap;html=1;align=center;" parent="1" vertex="1">
          <mxGeometry x="383" y="82" width="100" height="40" as="geometry" />
        </mxCell>
        <mxCell id="wR3M16szGRIk-EZS97ZV-22" value="" style="endArrow=none;html=1;rounded=0;entryX=0;entryY=0.5;entryDx=0;entryDy=0;exitX=1;exitY=0.5;exitDx=0;exitDy=0;" parent="1" source="wR3M16szGRIk-EZS97ZV-2" target="wR3M16szGRIk-EZS97ZV-1" edge="1">
          <mxGeometry relative="1" as="geometry">
            <mxPoint x="60" y="230" as="sourcePoint" />
            <mxPoint x="220" y="230" as="targetPoint" />
          </mxGeometry>
        </mxCell>
        <mxCell id="wR3M16szGRIk-EZS97ZV-23" value="" style="endArrow=none;html=1;rounded=0;entryX=0.5;entryY=0;entryDx=0;entryDy=0;exitX=0.25;exitY=1;exitDx=0;exitDy=0;" parent="1" source="wR3M16szGRIk-EZS97ZV-1" target="wR3M16szGRIk-EZS97ZV-5" edge="1">
          <mxGeometry relative="1" as="geometry">
            <mxPoint x="360" y="260" as="sourcePoint" />
            <mxPoint x="580" y="200" as="targetPoint" />
          </mxGeometry>
        </mxCell>
        <mxCell id="wR3M16szGRIk-EZS97ZV-26" value="" style="endArrow=none;html=1;rounded=0;entryX=0.5;entryY=0;entryDx=0;entryDy=0;exitX=0.5;exitY=1;exitDx=0;exitDy=0;" parent="1" source="wR3M16szGRIk-EZS97ZV-1" target="wR3M16szGRIk-EZS97ZV-6" edge="1">
          <mxGeometry relative="1" as="geometry">
            <mxPoint x="390" y="240" as="sourcePoint" />
            <mxPoint x="610" y="180" as="targetPoint" />
          </mxGeometry>
        </mxCell>
        <mxCell id="wR3M16szGRIk-EZS97ZV-27" value="教职工" style="whiteSpace=wrap;html=1;align=center;" parent="1" vertex="1">
          <mxGeometry x="883" y="167.5" width="100" height="40" as="geometry" />
        </mxCell>
        <mxCell id="wR3M16szGRIk-EZS97ZV-28" value="教职工编号" style="ellipse;whiteSpace=wrap;html=1;align=center;" parent="1" vertex="1">
          <mxGeometry x="699" y="136.5" width="100" height="40" as="geometry" />
        </mxCell>
        <mxCell id="wR3M16szGRIk-EZS97ZV-29" value="姓名" style="ellipse;whiteSpace=wrap;html=1;align=center;" parent="1" vertex="1">
          <mxGeometry x="699" y="198.5" width="100" height="40" as="geometry" />
        </mxCell>
        <mxCell id="wR3M16szGRIk-EZS97ZV-30" value="出生年份" style="ellipse;whiteSpace=wrap;html=1;align=center;" parent="1" vertex="1">
          <mxGeometry x="883" y="70.5" width="100" height="40" as="geometry" />
        </mxCell>
        <mxCell id="wR3M16szGRIk-EZS97ZV-31" value="学历" style="ellipse;whiteSpace=wrap;html=1;align=center;" parent="1" vertex="1">
          <mxGeometry x="1006" y="70.5" width="100" height="40" as="geometry" />
        </mxCell>
        <mxCell id="wR3M16szGRIk-EZS97ZV-32" value="姓名" style="ellipse;whiteSpace=wrap;html=1;align=center;" parent="1" vertex="1">
          <mxGeometry x="760" y="70.5" width="100" height="40" as="geometry" />
        </mxCell>
        <mxCell id="wR3M16szGRIk-EZS97ZV-33" value="民族" style="ellipse;whiteSpace=wrap;html=1;align=center;" parent="1" vertex="1">
          <mxGeometry x="883" y="269.5" width="100" height="40" as="geometry" />
        </mxCell>
        <mxCell id="wR3M16szGRIk-EZS97ZV-34" value="婚姻状态" style="ellipse;whiteSpace=wrap;html=1;align=center;" parent="1" vertex="1">
          <mxGeometry x="760" y="269.5" width="100" height="40" as="geometry" />
        </mxCell>
        <mxCell id="wR3M16szGRIk-EZS97ZV-35" value="政治面貌" style="ellipse;whiteSpace=wrap;html=1;align=center;" parent="1" vertex="1">
          <mxGeometry x="1006" y="269.5" width="100" height="40" as="geometry" />
        </mxCell>
        <mxCell id="wR3M16szGRIk-EZS97ZV-36" value="住址" style="ellipse;whiteSpace=wrap;html=1;align=center;" parent="1" vertex="1">
          <mxGeometry x="1065" y="139" width="100" height="40" as="geometry" />
        </mxCell>
        <mxCell id="wR3M16szGRIk-EZS97ZV-37" value="联系方式" style="ellipse;whiteSpace=wrap;html=1;align=center;" parent="1" vertex="1">
          <mxGeometry x="1065" y="196" width="100" height="40" as="geometry" />
        </mxCell>
        <mxCell id="wR3M16szGRIk-EZS97ZV-44" value="" style="endArrow=none;html=1;rounded=0;exitX=1;exitY=0.5;exitDx=0;exitDy=0;entryX=0;entryY=0.75;entryDx=0;entryDy=0;" parent="1" source="wR3M16szGRIk-EZS97ZV-29" target="wR3M16szGRIk-EZS97ZV-27" edge="1">
          <mxGeometry relative="1" as="geometry">
            <mxPoint x="863" y="151" as="sourcePoint" />
            <mxPoint x="993" y="151" as="targetPoint" />
          </mxGeometry>
        </mxCell>
        <mxCell id="wR3M16szGRIk-EZS97ZV-45" value="" style="endArrow=none;html=1;rounded=0;exitX=1;exitY=0.5;exitDx=0;exitDy=0;entryX=0;entryY=0.25;entryDx=0;entryDy=0;" parent="1" source="wR3M16szGRIk-EZS97ZV-28" target="wR3M16szGRIk-EZS97ZV-27" edge="1">
          <mxGeometry relative="1" as="geometry">
            <mxPoint x="883" y="151" as="sourcePoint" />
            <mxPoint x="1013" y="151" as="targetPoint" />
          </mxGeometry>
        </mxCell>
        <mxCell id="wR3M16szGRIk-EZS97ZV-46" value="" style="endArrow=none;html=1;rounded=0;exitX=0.5;exitY=1;exitDx=0;exitDy=0;entryX=0.25;entryY=0;entryDx=0;entryDy=0;" parent="1" source="wR3M16szGRIk-EZS97ZV-32" target="wR3M16szGRIk-EZS97ZV-27" edge="1">
          <mxGeometry relative="1" as="geometry">
            <mxPoint x="1003" y="151" as="sourcePoint" />
            <mxPoint x="1133" y="151" as="targetPoint" />
          </mxGeometry>
        </mxCell>
        <mxCell id="wR3M16szGRIk-EZS97ZV-47" value="" style="endArrow=none;html=1;rounded=0;exitX=0.5;exitY=1;exitDx=0;exitDy=0;entryX=0.5;entryY=0;entryDx=0;entryDy=0;" parent="1" source="wR3M16szGRIk-EZS97ZV-30" target="wR3M16szGRIk-EZS97ZV-27" edge="1">
          <mxGeometry relative="1" as="geometry">
            <mxPoint x="983" y="151" as="sourcePoint" />
            <mxPoint x="1113" y="151" as="targetPoint" />
          </mxGeometry>
        </mxCell>
        <mxCell id="wR3M16szGRIk-EZS97ZV-48" value="" style="endArrow=none;html=1;rounded=0;exitX=0.75;exitY=0;exitDx=0;exitDy=0;entryX=0;entryY=1;entryDx=0;entryDy=0;" parent="1" source="wR3M16szGRIk-EZS97ZV-27" target="wR3M16szGRIk-EZS97ZV-31" edge="1">
          <mxGeometry relative="1" as="geometry">
            <mxPoint x="1043" y="168.5" as="sourcePoint" />
            <mxPoint x="1173" y="168.5" as="targetPoint" />
          </mxGeometry>
        </mxCell>
        <mxCell id="wR3M16szGRIk-EZS97ZV-49" value="" style="endArrow=none;html=1;rounded=0;exitX=0.5;exitY=0;exitDx=0;exitDy=0;entryX=0.25;entryY=1;entryDx=0;entryDy=0;" parent="1" source="wR3M16szGRIk-EZS97ZV-34" target="wR3M16szGRIk-EZS97ZV-27" edge="1">
          <mxGeometry relative="1" as="geometry">
            <mxPoint x="843" y="251" as="sourcePoint" />
            <mxPoint x="973" y="251" as="targetPoint" />
          </mxGeometry>
        </mxCell>
        <mxCell id="wR3M16szGRIk-EZS97ZV-50" value="" style="endArrow=none;html=1;rounded=0;exitX=0.5;exitY=0;exitDx=0;exitDy=0;entryX=0.5;entryY=1;entryDx=0;entryDy=0;" parent="1" source="wR3M16szGRIk-EZS97ZV-33" target="wR3M16szGRIk-EZS97ZV-27" edge="1">
          <mxGeometry relative="1" as="geometry">
            <mxPoint x="843" y="261.5" as="sourcePoint" />
            <mxPoint x="973" y="261.5" as="targetPoint" />
          </mxGeometry>
        </mxCell>
        <mxCell id="wR3M16szGRIk-EZS97ZV-51" value="" style="endArrow=none;html=1;rounded=0;exitX=0.5;exitY=0;exitDx=0;exitDy=0;entryX=0.75;entryY=1;entryDx=0;entryDy=0;" parent="1" source="wR3M16szGRIk-EZS97ZV-35" target="wR3M16szGRIk-EZS97ZV-27" edge="1">
          <mxGeometry relative="1" as="geometry">
            <mxPoint x="883" y="271.5" as="sourcePoint" />
            <mxPoint x="1013" y="271.5" as="targetPoint" />
          </mxGeometry>
        </mxCell>
        <mxCell id="wR3M16szGRIk-EZS97ZV-52" value="" style="endArrow=none;html=1;rounded=0;exitX=1;exitY=0.25;exitDx=0;exitDy=0;entryX=0;entryY=0.5;entryDx=0;entryDy=0;" parent="1" source="wR3M16szGRIk-EZS97ZV-27" target="wR3M16szGRIk-EZS97ZV-36" edge="1">
          <mxGeometry relative="1" as="geometry">
            <mxPoint x="963" y="361.5" as="sourcePoint" />
            <mxPoint x="1093" y="361.5" as="targetPoint" />
          </mxGeometry>
        </mxCell>
        <mxCell id="wR3M16szGRIk-EZS97ZV-53" value="" style="endArrow=none;html=1;rounded=0;exitX=1;exitY=0.75;exitDx=0;exitDy=0;entryX=0;entryY=0.5;entryDx=0;entryDy=0;" parent="1" source="wR3M16szGRIk-EZS97ZV-27" target="wR3M16szGRIk-EZS97ZV-37" edge="1">
          <mxGeometry relative="1" as="geometry">
            <mxPoint x="1038" y="181.5" as="sourcePoint" />
            <mxPoint x="1168" y="181.5" as="targetPoint" />
          </mxGeometry>
        </mxCell>
        <mxCell id="wR3M16szGRIk-EZS97ZV-54" value="职称" style="whiteSpace=wrap;html=1;align=center;" parent="1" vertex="1">
          <mxGeometry x="260" y="517" width="100" height="40" as="geometry" />
        </mxCell>
        <mxCell id="wR3M16szGRIk-EZS97ZV-55" value="职称编号" style="ellipse;whiteSpace=wrap;html=1;align=center;" parent="1" vertex="1">
          <mxGeometry x="202" y="433" width="100" height="40" as="geometry" />
        </mxCell>
        <mxCell id="wR3M16szGRIk-EZS97ZV-56" value="职称名称" style="ellipse;whiteSpace=wrap;html=1;align=center;" parent="1" vertex="1">
          <mxGeometry x="318" y="433" width="100" height="40" as="geometry" />
        </mxCell>
        <mxCell id="wR3M16szGRIk-EZS97ZV-58" value="" style="endArrow=none;html=1;rounded=0;exitX=0.5;exitY=1;exitDx=0;exitDy=0;entryX=0.5;entryY=0;entryDx=0;entryDy=0;" parent="1" source="wR3M16szGRIk-EZS97ZV-56" target="wR3M16szGRIk-EZS97ZV-54" edge="1">
          <mxGeometry relative="1" as="geometry">
            <mxPoint x="210" y="677" as="sourcePoint" />
            <mxPoint x="300" y="617" as="targetPoint" />
          </mxGeometry>
        </mxCell>
        <mxCell id="wR3M16szGRIk-EZS97ZV-75" value="部门编号" style="ellipse;whiteSpace=wrap;html=1;align=center;" parent="1" vertex="1">
          <mxGeometry x="760" y="695" width="100" height="40" as="geometry" />
        </mxCell>
        <mxCell id="wR3M16szGRIk-EZS97ZV-76" value="部门名称" style="ellipse;whiteSpace=wrap;html=1;align=center;" parent="1" vertex="1">
          <mxGeometry x="883" y="695" width="100" height="40" as="geometry" />
        </mxCell>
        <mxCell id="wR3M16szGRIk-EZS97ZV-77" value="部门人数" style="ellipse;whiteSpace=wrap;html=1;align=center;" parent="1" vertex="1">
          <mxGeometry x="1006" y="695" width="100" height="40" as="geometry" />
        </mxCell>
        <mxCell id="wR3M16szGRIk-EZS97ZV-78" value="部门电话" style="ellipse;whiteSpace=wrap;html=1;align=center;" parent="1" vertex="1">
          <mxGeometry x="732" y="791" width="100" height="40" as="geometry" />
        </mxCell>
        <mxCell id="wR3M16szGRIk-EZS97ZV-79" value="部门地址" style="ellipse;whiteSpace=wrap;html=1;align=center;" parent="1" vertex="1">
          <mxGeometry x="1034" y="791" width="100" height="40" as="geometry" />
        </mxCell>
        <mxCell id="wR3M16szGRIk-EZS97ZV-91" value="奖惩" style="whiteSpace=wrap;html=1;align=center;" parent="1" vertex="1">
          <mxGeometry x="260" y="791" width="100" height="40" as="geometry" />
        </mxCell>
        <mxCell id="wR3M16szGRIk-EZS97ZV-93" value="奖惩编号" style="ellipse;whiteSpace=wrap;html=1;align=center;" parent="1" vertex="1">
          <mxGeometry x="76" y="791" width="100" height="40" as="geometry" />
        </mxCell>
        <mxCell id="wR3M16szGRIk-EZS97ZV-94" value="奖惩缘由" style="ellipse;whiteSpace=wrap;html=1;align=center;" parent="1" vertex="1">
          <mxGeometry x="344" y="695" width="100" height="40" as="geometry" />
        </mxCell>
        <mxCell id="wR3M16szGRIk-EZS97ZV-97" value="奖惩内容" style="ellipse;whiteSpace=wrap;html=1;align=center;" parent="1" vertex="1">
          <mxGeometry x="444" y="791" width="100" height="40" as="geometry" />
        </mxCell>
        <mxCell id="wR3M16szGRIk-EZS97ZV-99" value="" style="endArrow=none;html=1;rounded=0;exitX=0;exitY=0.5;exitDx=0;exitDy=0;entryX=1;entryY=0.5;entryDx=0;entryDy=0;" parent="1" source="wR3M16szGRIk-EZS97ZV-91" target="wR3M16szGRIk-EZS97ZV-93" edge="1">
          <mxGeometry relative="1" as="geometry">
            <mxPoint x="320" y="741" as="sourcePoint" />
            <mxPoint x="320" y="681" as="targetPoint" />
          </mxGeometry>
        </mxCell>
        <mxCell id="wR3M16szGRIk-EZS97ZV-100" value="" style="endArrow=none;html=1;rounded=0;exitX=0.75;exitY=0;exitDx=0;exitDy=0;entryX=0.5;entryY=1;entryDx=0;entryDy=0;" parent="1" source="wR3M16szGRIk-EZS97ZV-91" target="wR3M16szGRIk-EZS97ZV-94" edge="1">
          <mxGeometry relative="1" as="geometry">
            <mxPoint x="315" y="941" as="sourcePoint" />
            <mxPoint x="385" y="841" as="targetPoint" />
          </mxGeometry>
        </mxCell>
        <mxCell id="wR3M16szGRIk-EZS97ZV-102" value="" style="endArrow=none;html=1;rounded=0;exitX=1;exitY=0.5;exitDx=0;exitDy=0;entryX=0;entryY=0.5;entryDx=0;entryDy=0;" parent="1" source="wR3M16szGRIk-EZS97ZV-91" target="wR3M16szGRIk-EZS97ZV-97" edge="1">
          <mxGeometry relative="1" as="geometry">
            <mxPoint x="330" y="971" as="sourcePoint" />
            <mxPoint x="400" y="871" as="targetPoint" />
          </mxGeometry>
        </mxCell>
        <mxCell id="cXql9sk5BHd2LX_pI7Hl-1" value="" style="endArrow=none;html=1;rounded=0;exitX=0.5;exitY=0;exitDx=0;exitDy=0;entryX=0.5;entryY=1;entryDx=0;entryDy=0;" parent="1" source="wR3M16szGRIk-EZS97ZV-54" target="wR3M16szGRIk-EZS97ZV-55" edge="1">
          <mxGeometry relative="1" as="geometry">
            <mxPoint x="408" y="657" as="sourcePoint" />
            <mxPoint x="568" y="657" as="targetPoint" />
          </mxGeometry>
        </mxCell>
        <mxCell id="cXql9sk5BHd2LX_pI7Hl-2" value="职务" style="whiteSpace=wrap;html=1;align=center;" parent="1" vertex="1">
          <mxGeometry x="883" y="517" width="100" height="40" as="geometry" />
        </mxCell>
        <mxCell id="cXql9sk5BHd2LX_pI7Hl-3" value="职务编号" style="ellipse;whiteSpace=wrap;html=1;align=center;" parent="1" vertex="1">
          <mxGeometry x="825" y="433" width="100" height="40" as="geometry" />
        </mxCell>
        <mxCell id="cXql9sk5BHd2LX_pI7Hl-4" value="职务名称" style="ellipse;whiteSpace=wrap;html=1;align=center;" parent="1" vertex="1">
          <mxGeometry x="941" y="433" width="100" height="40" as="geometry" />
        </mxCell>
        <mxCell id="cXql9sk5BHd2LX_pI7Hl-5" value="" style="endArrow=none;html=1;rounded=0;exitX=0.5;exitY=1;exitDx=0;exitDy=0;entryX=0.5;entryY=0;entryDx=0;entryDy=0;" parent="1" source="cXql9sk5BHd2LX_pI7Hl-4" target="cXql9sk5BHd2LX_pI7Hl-2" edge="1">
          <mxGeometry relative="1" as="geometry">
            <mxPoint x="833" y="677" as="sourcePoint" />
            <mxPoint x="923" y="617" as="targetPoint" />
          </mxGeometry>
        </mxCell>
        <mxCell id="cXql9sk5BHd2LX_pI7Hl-6" value="" style="endArrow=none;html=1;rounded=0;exitX=0.5;exitY=0;exitDx=0;exitDy=0;entryX=0.5;entryY=1;entryDx=0;entryDy=0;" parent="1" source="cXql9sk5BHd2LX_pI7Hl-2" target="cXql9sk5BHd2LX_pI7Hl-3" edge="1">
          <mxGeometry relative="1" as="geometry">
            <mxPoint x="1031" y="657" as="sourcePoint" />
            <mxPoint x="1191" y="657" as="targetPoint" />
          </mxGeometry>
        </mxCell>
        <mxCell id="cXql9sk5BHd2LX_pI7Hl-7" value="部门" style="whiteSpace=wrap;html=1;align=center;" parent="1" vertex="1">
          <mxGeometry x="883" y="791" width="100" height="40" as="geometry" />
        </mxCell>
        <mxCell id="cXql9sk5BHd2LX_pI7Hl-8" value="" style="endArrow=none;html=1;rounded=0;exitX=0.5;exitY=1;exitDx=0;exitDy=0;entryX=0.25;entryY=0;entryDx=0;entryDy=0;" parent="1" source="wR3M16szGRIk-EZS97ZV-75" target="cXql9sk5BHd2LX_pI7Hl-7" edge="1">
          <mxGeometry relative="1" as="geometry">
            <mxPoint x="735" y="882" as="sourcePoint" />
            <mxPoint x="895" y="882" as="targetPoint" />
          </mxGeometry>
        </mxCell>
        <mxCell id="cXql9sk5BHd2LX_pI7Hl-9" value="" style="endArrow=none;html=1;rounded=0;exitX=0.5;exitY=1;exitDx=0;exitDy=0;entryX=0.5;entryY=0;entryDx=0;entryDy=0;" parent="1" source="wR3M16szGRIk-EZS97ZV-76" target="cXql9sk5BHd2LX_pI7Hl-7" edge="1">
          <mxGeometry relative="1" as="geometry">
            <mxPoint x="1041" y="775" as="sourcePoint" />
            <mxPoint x="1201" y="775" as="targetPoint" />
          </mxGeometry>
        </mxCell>
        <mxCell id="cXql9sk5BHd2LX_pI7Hl-10" value="" style="endArrow=none;html=1;rounded=0;exitX=0.5;exitY=1;exitDx=0;exitDy=0;entryX=0.75;entryY=0;entryDx=0;entryDy=0;" parent="1" source="wR3M16szGRIk-EZS97ZV-77" target="cXql9sk5BHd2LX_pI7Hl-7" edge="1">
          <mxGeometry relative="1" as="geometry">
            <mxPoint x="1086" y="793" as="sourcePoint" />
            <mxPoint x="1246" y="793" as="targetPoint" />
          </mxGeometry>
        </mxCell>
        <mxCell id="cXql9sk5BHd2LX_pI7Hl-11" value="" style="endArrow=none;html=1;rounded=0;exitX=1;exitY=0.5;exitDx=0;exitDy=0;entryX=0;entryY=0.5;entryDx=0;entryDy=0;" parent="1" source="wR3M16szGRIk-EZS97ZV-78" target="cXql9sk5BHd2LX_pI7Hl-7" edge="1">
          <mxGeometry relative="1" as="geometry">
            <mxPoint x="875" y="899" as="sourcePoint" />
            <mxPoint x="1035" y="899" as="targetPoint" />
          </mxGeometry>
        </mxCell>
        <mxCell id="cXql9sk5BHd2LX_pI7Hl-12" value="" style="endArrow=none;html=1;rounded=0;exitX=1;exitY=0.5;exitDx=0;exitDy=0;entryX=0;entryY=0.5;entryDx=0;entryDy=0;" parent="1" source="cXql9sk5BHd2LX_pI7Hl-7" target="wR3M16szGRIk-EZS97ZV-79" edge="1">
          <mxGeometry relative="1" as="geometry">
            <mxPoint x="993" y="909" as="sourcePoint" />
            <mxPoint x="1153" y="909" as="targetPoint" />
          </mxGeometry>
        </mxCell>
        <mxCell id="YHgyafti-iYb4S2aDyir-1" value="家庭关系" style="whiteSpace=wrap;html=1;align=center;" parent="1" vertex="1">
          <mxGeometry x="260" y="1137" width="100" height="40" as="geometry" />
        </mxCell>
        <mxCell id="YHgyafti-iYb4S2aDyir-2" value="家庭编号" style="ellipse;whiteSpace=wrap;html=1;align=center;" parent="1" vertex="1">
          <mxGeometry x="137" y="1059" width="100" height="40" as="geometry" />
        </mxCell>
        <mxCell id="YHgyafti-iYb4S2aDyir-3" value="教职工编号" style="ellipse;whiteSpace=wrap;html=1;align=center;" parent="1" vertex="1">
          <mxGeometry x="260" y="1059" width="100" height="40" as="geometry" />
        </mxCell>
        <mxCell id="YHgyafti-iYb4S2aDyir-4" value="家庭角色" style="ellipse;whiteSpace=wrap;html=1;align=center;" parent="1" vertex="1">
          <mxGeometry x="383" y="1059" width="100" height="40" as="geometry" />
        </mxCell>
        <mxCell id="YHgyafti-iYb4S2aDyir-9" value="" style="endArrow=none;html=1;rounded=0;fontSize=12;startSize=8;endSize=8;curved=1;entryX=0.5;entryY=1;entryDx=0;entryDy=0;exitX=0.25;exitY=0;exitDx=0;exitDy=0;" parent="1" source="YHgyafti-iYb4S2aDyir-1" target="YHgyafti-iYb4S2aDyir-2" edge="1">
          <mxGeometry relative="1" as="geometry">
            <mxPoint x="12" y="1174" as="sourcePoint" />
            <mxPoint x="172" y="1174" as="targetPoint" />
          </mxGeometry>
        </mxCell>
        <mxCell id="YHgyafti-iYb4S2aDyir-10" value="" style="endArrow=none;html=1;rounded=0;fontSize=12;startSize=8;endSize=8;curved=1;entryX=0.5;entryY=1;entryDx=0;entryDy=0;exitX=0.5;exitY=0;exitDx=0;exitDy=0;" parent="1" source="YHgyafti-iYb4S2aDyir-1" target="YHgyafti-iYb4S2aDyir-3" edge="1">
          <mxGeometry relative="1" as="geometry">
            <mxPoint x="476" y="1153" as="sourcePoint" />
            <mxPoint x="353" y="1115" as="targetPoint" />
          </mxGeometry>
        </mxCell>
        <mxCell id="YHgyafti-iYb4S2aDyir-11" value="" style="endArrow=none;html=1;rounded=0;fontSize=12;startSize=8;endSize=8;curved=1;entryX=0.5;entryY=1;entryDx=0;entryDy=0;exitX=0.75;exitY=0;exitDx=0;exitDy=0;" parent="1" source="YHgyafti-iYb4S2aDyir-1" target="YHgyafti-iYb4S2aDyir-4" edge="1">
          <mxGeometry relative="1" as="geometry">
            <mxPoint x="511" y="1166" as="sourcePoint" />
            <mxPoint x="388" y="1128" as="targetPoint" />
          </mxGeometry>
        </mxCell>
        <mxCell id="BrgDwG8IET9F0OOQWWlq-1" value="奖惩类型" style="ellipse;whiteSpace=wrap;html=1;align=center;" vertex="1" parent="1">
          <mxGeometry x="196" y="695" width="100" height="40" as="geometry" />
        </mxCell>
        <mxCell id="BrgDwG8IET9F0OOQWWlq-4" value="" style="endArrow=none;html=1;rounded=0;fontSize=12;startSize=8;endSize=8;curved=1;entryX=0.5;entryY=1;entryDx=0;entryDy=0;exitX=0.5;exitY=0;exitDx=0;exitDy=0;" edge="1" parent="1" source="wR3M16szGRIk-EZS97ZV-91" target="BrgDwG8IET9F0OOQWWlq-1">
          <mxGeometry width="50" height="50" relative="1" as="geometry">
            <mxPoint x="564" y="681" as="sourcePoint" />
            <mxPoint x="614" y="631" as="targetPoint" />
          </mxGeometry>
        </mxCell>
      </root>
    </mxGraphModel>
  </diagram>
  <diagram id="ccsNqEEvVaxmKKTKnpdy" name="顶层数据流图">
    <mxGraphModel dx="2474" dy="1119" grid="0" gridSize="10" guides="1" tooltips="1" connect="1" arrows="1" fold="1" page="0" pageScale="1" pageWidth="827" pageHeight="1169" math="0" shadow="0">
      <root>
        <mxCell id="0" />
        <mxCell id="1" parent="0" />
        <mxCell id="CO7tzx1k-D9LlaG9tX8z-3" style="edgeStyle=none;curved=1;rounded=0;orthogonalLoop=1;jettySize=auto;html=1;exitX=1;exitY=0.25;exitDx=0;exitDy=0;fontSize=12;startSize=8;endSize=8;entryX=-0.016;entryY=0.4;entryDx=0;entryDy=0;entryPerimeter=0;" parent="1" source="CO7tzx1k-D9LlaG9tX8z-1" target="CO7tzx1k-D9LlaG9tX8z-2" edge="1">
          <mxGeometry relative="1" as="geometry">
            <mxPoint x="72" y="174" as="targetPoint" />
          </mxGeometry>
        </mxCell>
        <mxCell id="CO7tzx1k-D9LlaG9tX8z-4" style="edgeStyle=none;curved=1;rounded=0;orthogonalLoop=1;jettySize=auto;html=1;exitX=1;exitY=0.75;exitDx=0;exitDy=0;entryX=-0.016;entryY=0.6;entryDx=0;entryDy=0;entryPerimeter=0;fontSize=12;startSize=8;endSize=8;endArrow=none;endFill=0;startArrow=classic;startFill=1;" parent="1" source="CO7tzx1k-D9LlaG9tX8z-1" target="CO7tzx1k-D9LlaG9tX8z-2" edge="1">
          <mxGeometry relative="1" as="geometry" />
        </mxCell>
        <mxCell id="CO7tzx1k-D9LlaG9tX8z-1" value="管理员" style="html=1;dashed=0;whiteSpace=wrap;fontSize=16;" parent="1" vertex="1">
          <mxGeometry x="-208" y="161" width="100" height="50" as="geometry" />
        </mxCell>
        <mxCell id="CO7tzx1k-D9LlaG9tX8z-2" value="学校人力资源&lt;br&gt;管理系统" style="shape=ellipse;html=1;dashed=0;whiteSpace=wrap;aspect=fixed;perimeter=ellipsePerimeter;fontSize=16;" parent="1" vertex="1">
          <mxGeometry x="63" y="123.5" width="125" height="125" as="geometry" />
        </mxCell>
        <mxCell id="CO7tzx1k-D9LlaG9tX8z-5" value="请求操作" style="text;html=1;align=center;verticalAlign=middle;resizable=0;points=[];autosize=1;strokeColor=none;fillColor=none;fontSize=16;" parent="1" vertex="1">
          <mxGeometry x="-70" y="144" width="82" height="31" as="geometry" />
        </mxCell>
        <mxCell id="CO7tzx1k-D9LlaG9tX8z-6" value="请求响应" style="text;html=1;align=center;verticalAlign=middle;resizable=0;points=[];autosize=1;strokeColor=none;fillColor=none;fontSize=16;" parent="1" vertex="1">
          <mxGeometry x="-70" y="194" width="82" height="31" as="geometry" />
        </mxCell>
      </root>
    </mxGraphModel>
  </diagram>
  <diagram id="lzc8tCjo1ltVOPs_cTiZ" name="中层数据流图">
    <mxGraphModel dx="2059" dy="895" grid="0" gridSize="10" guides="1" tooltips="1" connect="1" arrows="1" fold="1" page="0" pageScale="1" pageWidth="827" pageHeight="1169" background="none" math="0" shadow="0">
      <root>
        <mxCell id="0" />
        <mxCell id="1" parent="0" />
        <mxCell id="4cg-yMZASIT0EC4H4Mf3-1" value="&lt;font style=&quot;font-size: 12px;&quot;&gt;1&lt;br&gt;登录&lt;/font&gt;" style="shape=ellipse;html=1;dashed=0;whiteSpace=wrap;aspect=fixed;perimeter=ellipsePerimeter;fontSize=16;" parent="1" vertex="1">
          <mxGeometry y="320" width="80" height="80" as="geometry" />
        </mxCell>
        <mxCell id="SistrwYsHnkyrt9ZVSSs-1" value="" style="endArrow=classic;html=1;rounded=0;entryX=0;entryY=0.5;entryDx=0;entryDy=0;exitX=-0.043;exitY=1.008;exitDx=0;exitDy=0;exitPerimeter=0;" edge="1" parent="1" source="SistrwYsHnkyrt9ZVSSs-2" target="4cg-yMZASIT0EC4H4Mf3-1">
          <mxGeometry width="50" height="50" relative="1" as="geometry">
            <mxPoint x="-223" y="360" as="sourcePoint" />
            <mxPoint x="-170" y="322" as="targetPoint" />
          </mxGeometry>
        </mxCell>
        <mxCell id="SistrwYsHnkyrt9ZVSSs-2" value="登录请求" style="text;html=1;align=center;verticalAlign=middle;resizable=0;points=[];autosize=1;strokeColor=none;fillColor=none;" vertex="1" parent="1">
          <mxGeometry x="-184" y="285" width="70" height="30" as="geometry" />
        </mxCell>
        <mxCell id="SistrwYsHnkyrt9ZVSSs-3" value="&lt;font style=&quot;font-size: 12px;&quot;&gt;6&lt;br&gt;职务信息管理&lt;/font&gt;" style="shape=ellipse;html=1;dashed=0;whiteSpace=wrap;aspect=fixed;perimeter=ellipsePerimeter;fontSize=16;" vertex="1" parent="1">
          <mxGeometry x="160" y="440" width="80" height="80" as="geometry" />
        </mxCell>
        <mxCell id="SistrwYsHnkyrt9ZVSSs-4" value="&lt;font style=&quot;font-size: 12px;&quot;&gt;7&lt;br&gt;奖惩信息管理&lt;/font&gt;" style="shape=ellipse;html=1;dashed=0;whiteSpace=wrap;aspect=fixed;perimeter=ellipsePerimeter;fontSize=16;" vertex="1" parent="1">
          <mxGeometry y="520" width="80" height="80" as="geometry" />
        </mxCell>
        <mxCell id="SistrwYsHnkyrt9ZVSSs-5" value="&lt;font style=&quot;font-size: 12px;&quot;&gt;8&lt;br&gt;家庭信息管理&lt;/font&gt;" style="shape=ellipse;html=1;dashed=0;whiteSpace=wrap;aspect=fixed;perimeter=ellipsePerimeter;fontSize=16;" vertex="1" parent="1">
          <mxGeometry x="-160" y="440" width="80" height="80" as="geometry" />
        </mxCell>
        <mxCell id="SistrwYsHnkyrt9ZVSSs-6" value="&lt;font style=&quot;font-size: 12px;&quot;&gt;2&lt;br&gt;教职工信息管理&lt;/font&gt;" style="shape=ellipse;html=1;dashed=0;whiteSpace=wrap;aspect=fixed;perimeter=ellipsePerimeter;fontSize=16;" vertex="1" parent="1">
          <mxGeometry x="-160" y="200" width="80" height="80" as="geometry" />
        </mxCell>
        <mxCell id="SistrwYsHnkyrt9ZVSSs-7" value="&lt;font style=&quot;font-size: 12px;&quot;&gt;3&lt;br&gt;学籍经历管理&lt;/font&gt;" style="shape=ellipse;html=1;dashed=0;whiteSpace=wrap;aspect=fixed;perimeter=ellipsePerimeter;fontSize=16;" vertex="1" parent="1">
          <mxGeometry y="120" width="80" height="80" as="geometry" />
        </mxCell>
        <mxCell id="SistrwYsHnkyrt9ZVSSs-8" value="4&lt;br&gt;部门信息管理" style="shape=ellipse;html=1;dashed=0;whiteSpace=wrap;aspect=fixed;perimeter=ellipsePerimeter;fontSize=16;" vertex="1" parent="1">
          <mxGeometry x="160" y="200" width="80" height="80" as="geometry" />
        </mxCell>
        <mxCell id="SistrwYsHnkyrt9ZVSSs-9" value="&lt;font style=&quot;font-size: 12px;&quot;&gt;5&lt;br&gt;职称信息管理&lt;/font&gt;" style="shape=ellipse;html=1;dashed=0;whiteSpace=wrap;aspect=fixed;perimeter=ellipsePerimeter;fontSize=16;" vertex="1" parent="1">
          <mxGeometry x="240" y="320" width="80" height="80" as="geometry" />
        </mxCell>
        <mxCell id="SistrwYsHnkyrt9ZVSSs-13" value="" style="endArrow=classic;html=1;rounded=0;exitX=0.223;exitY=0.076;exitDx=0;exitDy=0;exitPerimeter=0;entryX=0.921;entryY=0.774;entryDx=0;entryDy=0;entryPerimeter=0;" edge="1" parent="1" source="4cg-yMZASIT0EC4H4Mf3-1" target="SistrwYsHnkyrt9ZVSSs-6">
          <mxGeometry width="50" height="50" relative="1" as="geometry">
            <mxPoint y="300" as="sourcePoint" />
            <mxPoint x="50" y="250" as="targetPoint" />
          </mxGeometry>
        </mxCell>
        <mxCell id="SistrwYsHnkyrt9ZVSSs-14" value="" style="endArrow=classic;html=1;rounded=0;exitX=0.827;exitY=0.951;exitDx=0;exitDy=0;exitPerimeter=0;entryX=0.1;entryY=0.228;entryDx=0;entryDy=0;entryPerimeter=0;" edge="1" parent="1" source="SistrwYsHnkyrt9ZVSSs-6" target="4cg-yMZASIT0EC4H4Mf3-1">
          <mxGeometry width="50" height="50" relative="1" as="geometry">
            <mxPoint x="-13" y="379.5" as="sourcePoint" />
            <mxPoint x="-120" y="310.5" as="targetPoint" />
          </mxGeometry>
        </mxCell>
        <mxCell id="SistrwYsHnkyrt9ZVSSs-15" value="" style="endArrow=classic;html=1;rounded=0;exitX=0.397;exitY=0.975;exitDx=0;exitDy=0;exitPerimeter=0;entryX=0.391;entryY=0.013;entryDx=0;entryDy=0;entryPerimeter=0;" edge="1" parent="1" source="SistrwYsHnkyrt9ZVSSs-7" target="4cg-yMZASIT0EC4H4Mf3-1">
          <mxGeometry width="50" height="50" relative="1" as="geometry">
            <mxPoint x="167" y="309" as="sourcePoint" />
            <mxPoint x="29" y="320" as="targetPoint" />
          </mxGeometry>
        </mxCell>
        <mxCell id="SistrwYsHnkyrt9ZVSSs-16" value="" style="endArrow=classic;html=1;rounded=0;exitX=0.603;exitY=0.006;exitDx=0;exitDy=0;exitPerimeter=0;entryX=0.603;entryY=0.994;entryDx=0;entryDy=0;entryPerimeter=0;" edge="1" parent="1" source="4cg-yMZASIT0EC4H4Mf3-1" target="SistrwYsHnkyrt9ZVSSs-7">
          <mxGeometry width="50" height="50" relative="1" as="geometry">
            <mxPoint x="167" y="320" as="sourcePoint" />
            <mxPoint x="60" y="251" as="targetPoint" />
          </mxGeometry>
        </mxCell>
        <mxCell id="SistrwYsHnkyrt9ZVSSs-17" value="" style="endArrow=classic;html=1;rounded=0;exitX=0.079;exitY=0.769;exitDx=0;exitDy=0;exitPerimeter=0;entryX=0.808;entryY=0.096;entryDx=0;entryDy=0;entryPerimeter=0;" edge="1" parent="1" source="SistrwYsHnkyrt9ZVSSs-8" target="4cg-yMZASIT0EC4H4Mf3-1">
          <mxGeometry width="50" height="50" relative="1" as="geometry">
            <mxPoint x="197" y="400" as="sourcePoint" />
            <mxPoint x="90" y="331" as="targetPoint" />
          </mxGeometry>
        </mxCell>
        <mxCell id="SistrwYsHnkyrt9ZVSSs-18" value="" style="endArrow=classic;html=1;rounded=0;exitX=0.947;exitY=0.256;exitDx=0;exitDy=0;exitPerimeter=0;entryX=0.218;entryY=0.936;entryDx=0;entryDy=0;entryPerimeter=0;" edge="1" parent="1" source="4cg-yMZASIT0EC4H4Mf3-1" target="SistrwYsHnkyrt9ZVSSs-8">
          <mxGeometry width="50" height="50" relative="1" as="geometry">
            <mxPoint x="227" y="389" as="sourcePoint" />
            <mxPoint x="120" y="320" as="targetPoint" />
          </mxGeometry>
        </mxCell>
        <mxCell id="SistrwYsHnkyrt9ZVSSs-19" value="" style="endArrow=classic;html=1;rounded=0;entryX=1.009;entryY=0.378;entryDx=0;entryDy=0;entryPerimeter=0;exitX=0;exitY=0.387;exitDx=0;exitDy=0;exitPerimeter=0;" edge="1" parent="1" source="SistrwYsHnkyrt9ZVSSs-9" target="4cg-yMZASIT0EC4H4Mf3-1">
          <mxGeometry width="50" height="50" relative="1" as="geometry">
            <mxPoint x="230" y="350" as="sourcePoint" />
            <mxPoint x="133" y="370" as="targetPoint" />
          </mxGeometry>
        </mxCell>
        <mxCell id="SistrwYsHnkyrt9ZVSSs-20" value="" style="endArrow=classic;html=1;rounded=0;exitX=1.009;exitY=0.619;exitDx=0;exitDy=0;exitPerimeter=0;entryX=-0.009;entryY=0.619;entryDx=0;entryDy=0;entryPerimeter=0;" edge="1" parent="1" source="4cg-yMZASIT0EC4H4Mf3-1" target="SistrwYsHnkyrt9ZVSSs-9">
          <mxGeometry width="50" height="50" relative="1" as="geometry">
            <mxPoint x="197" y="440" as="sourcePoint" />
            <mxPoint x="90" y="371" as="targetPoint" />
          </mxGeometry>
        </mxCell>
        <mxCell id="SistrwYsHnkyrt9ZVSSs-21" value="" style="endArrow=classic;html=1;rounded=0;exitX=0.233;exitY=0.059;exitDx=0;exitDy=0;exitPerimeter=0;entryX=0.922;entryY=0.749;entryDx=0;entryDy=0;entryPerimeter=0;" edge="1" parent="1" source="SistrwYsHnkyrt9ZVSSs-3" target="4cg-yMZASIT0EC4H4Mf3-1">
          <mxGeometry width="50" height="50" relative="1" as="geometry">
            <mxPoint x="168.5" y="509" as="sourcePoint" />
            <mxPoint x="61.5" y="440" as="targetPoint" />
          </mxGeometry>
        </mxCell>
        <mxCell id="SistrwYsHnkyrt9ZVSSs-22" value="" style="endArrow=classic;html=1;rounded=0;exitX=0.802;exitY=0.938;exitDx=0;exitDy=0;exitPerimeter=0;entryX=0.078;entryY=0.223;entryDx=0;entryDy=0;entryPerimeter=0;" edge="1" parent="1" source="4cg-yMZASIT0EC4H4Mf3-1" target="SistrwYsHnkyrt9ZVSSs-3">
          <mxGeometry width="50" height="50" relative="1" as="geometry">
            <mxPoint x="160" y="489" as="sourcePoint" />
            <mxPoint x="53" y="420" as="targetPoint" />
          </mxGeometry>
        </mxCell>
        <mxCell id="SistrwYsHnkyrt9ZVSSs-23" value="" style="endArrow=classic;html=1;rounded=0;exitX=0.621;exitY=0.016;exitDx=0;exitDy=0;exitPerimeter=0;entryX=0.612;entryY=0.981;entryDx=0;entryDy=0;entryPerimeter=0;" edge="1" parent="1" source="SistrwYsHnkyrt9ZVSSs-4" target="4cg-yMZASIT0EC4H4Mf3-1">
          <mxGeometry width="50" height="50" relative="1" as="geometry">
            <mxPoint x="73.5" y="489" as="sourcePoint" />
            <mxPoint x="-33.5" y="420" as="targetPoint" />
          </mxGeometry>
        </mxCell>
        <mxCell id="SistrwYsHnkyrt9ZVSSs-24" value="" style="endArrow=classic;html=1;rounded=0;exitX=0.371;exitY=0.973;exitDx=0;exitDy=0;exitPerimeter=0;entryX=0.371;entryY=0.016;entryDx=0;entryDy=0;entryPerimeter=0;" edge="1" parent="1" source="4cg-yMZASIT0EC4H4Mf3-1" target="SistrwYsHnkyrt9ZVSSs-4">
          <mxGeometry width="50" height="50" relative="1" as="geometry">
            <mxPoint x="47" y="489" as="sourcePoint" />
            <mxPoint x="-60" y="420" as="targetPoint" />
          </mxGeometry>
        </mxCell>
        <mxCell id="SistrwYsHnkyrt9ZVSSs-25" value="" style="endArrow=classic;html=1;rounded=0;exitX=0.069;exitY=0.8;exitDx=0;exitDy=0;exitPerimeter=0;entryX=0.784;entryY=0.085;entryDx=0;entryDy=0;entryPerimeter=0;" edge="1" parent="1" source="4cg-yMZASIT0EC4H4Mf3-1" target="SistrwYsHnkyrt9ZVSSs-5">
          <mxGeometry width="50" height="50" relative="1" as="geometry">
            <mxPoint x="-63" y="449" as="sourcePoint" />
            <mxPoint x="-170" y="380" as="targetPoint" />
          </mxGeometry>
        </mxCell>
        <mxCell id="SistrwYsHnkyrt9ZVSSs-28" value="" style="endArrow=classic;html=1;rounded=0;exitX=0.931;exitY=0.231;exitDx=0;exitDy=0;exitPerimeter=0;entryX=0.207;entryY=0.921;entryDx=0;entryDy=0;entryPerimeter=0;" edge="1" parent="1" source="SistrwYsHnkyrt9ZVSSs-5" target="4cg-yMZASIT0EC4H4Mf3-1">
          <mxGeometry width="50" height="50" relative="1" as="geometry">
            <mxPoint x="-10" y="460" as="sourcePoint" />
            <mxPoint x="-117" y="391" as="targetPoint" />
          </mxGeometry>
        </mxCell>
        <mxCell id="SistrwYsHnkyrt9ZVSSs-30" value="增&lt;br&gt;删&lt;br&gt;改&lt;br&gt;信&lt;br&gt;息" style="text;html=1;align=center;verticalAlign=middle;resizable=0;points=[];autosize=1;strokeColor=none;fillColor=none;" vertex="1" parent="1">
          <mxGeometry x="40" y="200" width="40" height="90" as="geometry" />
        </mxCell>
        <mxCell id="SistrwYsHnkyrt9ZVSSs-31" value="查询信息" style="text;html=1;align=center;verticalAlign=middle;resizable=0;points=[];autosize=1;strokeColor=none;fillColor=none;" vertex="1" parent="1">
          <mxGeometry x="-80" y="320" width="70" height="30" as="geometry" />
        </mxCell>
        <mxCell id="SistrwYsHnkyrt9ZVSSs-32" value="查&lt;br&gt;询&lt;br&gt;信&lt;br&gt;息" style="text;html=1;align=center;verticalAlign=middle;resizable=0;points=[];autosize=1;strokeColor=none;fillColor=none;" vertex="1" parent="1">
          <mxGeometry y="220" width="40" height="70" as="geometry" />
        </mxCell>
        <mxCell id="SistrwYsHnkyrt9ZVSSs-33" value="&lt;font style=&quot;font-size: 11px;&quot;&gt;增删改信息&lt;/font&gt;" style="text;html=1;align=center;verticalAlign=middle;resizable=0;points=[];autosize=1;strokeColor=none;fillColor=none;" vertex="1" parent="1">
          <mxGeometry x="-85" y="250" width="80" height="30" as="geometry" />
        </mxCell>
        <mxCell id="SistrwYsHnkyrt9ZVSSs-34" value="增删改信息" style="text;html=1;align=center;verticalAlign=middle;resizable=0;points=[];autosize=1;strokeColor=none;fillColor=none;" vertex="1" parent="1">
          <mxGeometry x="140" y="280" width="80" height="30" as="geometry" />
        </mxCell>
        <mxCell id="SistrwYsHnkyrt9ZVSSs-35" value="查询信息" style="text;html=1;align=center;verticalAlign=middle;resizable=0;points=[];autosize=1;strokeColor=none;fillColor=none;" vertex="1" parent="1">
          <mxGeometry x="40" y="290" width="70" height="30" as="geometry" />
        </mxCell>
        <mxCell id="FF1rGeJrIOFZgv-gPNnW-1" value="增删改信息" style="text;html=1;align=center;verticalAlign=middle;resizable=0;points=[];autosize=1;strokeColor=none;fillColor=none;" vertex="1" parent="1">
          <mxGeometry x="160" y="370" width="80" height="30" as="geometry" />
        </mxCell>
        <mxCell id="FF1rGeJrIOFZgv-gPNnW-2" value="查询信息" style="text;html=1;align=center;verticalAlign=middle;resizable=0;points=[];autosize=1;strokeColor=none;fillColor=none;" vertex="1" parent="1">
          <mxGeometry x="80" y="320" width="70" height="30" as="geometry" />
        </mxCell>
        <mxCell id="FF1rGeJrIOFZgv-gPNnW-3" value="增删改信息" style="text;html=1;align=center;verticalAlign=middle;resizable=0;points=[];autosize=1;strokeColor=none;fillColor=none;" vertex="1" parent="1">
          <mxGeometry x="70" y="430" width="80" height="30" as="geometry" />
        </mxCell>
        <mxCell id="FF1rGeJrIOFZgv-gPNnW-4" value="查询信息" style="text;html=1;align=center;verticalAlign=middle;resizable=0;points=[];autosize=1;strokeColor=none;fillColor=none;" vertex="1" parent="1">
          <mxGeometry x="90" y="380" width="70" height="30" as="geometry" />
        </mxCell>
        <mxCell id="FF1rGeJrIOFZgv-gPNnW-5" value="增&lt;br&gt;删&lt;br&gt;改&lt;br&gt;信&lt;br&gt;息" style="text;html=1;align=center;verticalAlign=middle;resizable=0;points=[];autosize=1;strokeColor=none;fillColor=none;" vertex="1" parent="1">
          <mxGeometry y="435" width="40" height="90" as="geometry" />
        </mxCell>
        <mxCell id="FF1rGeJrIOFZgv-gPNnW-6" value="查&lt;br&gt;询&lt;br&gt;信&lt;br&gt;息" style="text;html=1;align=center;verticalAlign=middle;resizable=0;points=[];autosize=1;strokeColor=none;fillColor=none;" vertex="1" parent="1">
          <mxGeometry x="40" y="400" width="40" height="70" as="geometry" />
        </mxCell>
        <mxCell id="FF1rGeJrIOFZgv-gPNnW-7" value="&lt;font style=&quot;font-size: 11px;&quot;&gt;增删改信息&lt;/font&gt;" style="text;html=1;align=center;verticalAlign=middle;resizable=0;points=[];autosize=1;strokeColor=none;fillColor=none;" vertex="1" parent="1">
          <mxGeometry x="-40" y="410" width="80" height="30" as="geometry" />
        </mxCell>
        <mxCell id="FF1rGeJrIOFZgv-gPNnW-8" value="查询信息" style="text;html=1;align=center;verticalAlign=middle;resizable=0;points=[];autosize=1;strokeColor=none;fillColor=none;" vertex="1" parent="1">
          <mxGeometry x="-120" y="405" width="70" height="30" as="geometry" />
        </mxCell>
        <mxCell id="FF1rGeJrIOFZgv-gPNnW-9" value="" style="html=1;dashed=0;whiteSpace=wrap;shape=partialRectangle;right=0;left=0;" vertex="1" parent="1">
          <mxGeometry x="-260" y="230" width="60" height="20" as="geometry" />
        </mxCell>
        <mxCell id="FF1rGeJrIOFZgv-gPNnW-10" value="教职工信息" style="text;html=1;align=center;verticalAlign=middle;resizable=0;points=[];autosize=1;strokeColor=none;fillColor=none;" vertex="1" parent="1">
          <mxGeometry x="-270" y="200" width="80" height="30" as="geometry" />
        </mxCell>
        <mxCell id="FF1rGeJrIOFZgv-gPNnW-15" value="" style="endArrow=classic;html=1;entryX=0.5;entryY=1;entryDx=0;entryDy=0;exitX=0;exitY=1;exitDx=0;exitDy=0;curved=1;" edge="1" parent="1" source="SistrwYsHnkyrt9ZVSSs-6" target="FF1rGeJrIOFZgv-gPNnW-9">
          <mxGeometry width="50" height="50" relative="1" as="geometry">
            <mxPoint x="-280" y="310" as="sourcePoint" />
            <mxPoint x="-230" y="260" as="targetPoint" />
            <Array as="points">
              <mxPoint x="-190" y="290" />
            </Array>
          </mxGeometry>
        </mxCell>
        <mxCell id="FF1rGeJrIOFZgv-gPNnW-28" value="" style="html=1;dashed=0;whiteSpace=wrap;shape=partialRectangle;right=0;left=0;" vertex="1" parent="1">
          <mxGeometry x="-100" y="150" width="60" height="20" as="geometry" />
        </mxCell>
        <mxCell id="FF1rGeJrIOFZgv-gPNnW-29" value="" style="endArrow=classic;html=1;entryX=0;entryY=0;entryDx=0;entryDy=0;curved=1;" edge="1" parent="1" target="SistrwYsHnkyrt9ZVSSs-6">
          <mxGeometry width="50" height="50" relative="1" as="geometry">
            <mxPoint x="-230" y="210" as="sourcePoint" />
            <mxPoint x="-180" y="160" as="targetPoint" />
            <Array as="points">
              <mxPoint x="-210" y="190" />
              <mxPoint x="-170" y="190" />
            </Array>
          </mxGeometry>
        </mxCell>
        <mxCell id="FF1rGeJrIOFZgv-gPNnW-30" value="学籍经历信息" style="text;html=1;align=center;verticalAlign=middle;resizable=0;points=[];autosize=1;strokeColor=none;fillColor=none;" vertex="1" parent="1">
          <mxGeometry x="-125" y="120" width="100" height="30" as="geometry" />
        </mxCell>
        <mxCell id="FF1rGeJrIOFZgv-gPNnW-31" value="" style="endArrow=classic;html=1;curved=1;entryX=0;entryY=0;entryDx=0;entryDy=0;" edge="1" parent="1" target="SistrwYsHnkyrt9ZVSSs-7">
          <mxGeometry width="50" height="50" relative="1" as="geometry">
            <mxPoint x="-80" y="130" as="sourcePoint" />
            <mxPoint x="2" y="132" as="targetPoint" />
            <Array as="points">
              <mxPoint x="-60" y="110" />
              <mxPoint x="-10" y="110" />
            </Array>
          </mxGeometry>
        </mxCell>
        <mxCell id="FF1rGeJrIOFZgv-gPNnW-32" value="" style="endArrow=classic;html=1;entryX=0.5;entryY=1;entryDx=0;entryDy=0;exitX=0;exitY=1;exitDx=0;exitDy=0;curved=1;" edge="1" parent="1" source="SistrwYsHnkyrt9ZVSSs-7" target="FF1rGeJrIOFZgv-gPNnW-28">
          <mxGeometry width="50" height="50" relative="1" as="geometry">
            <mxPoint y="198" as="sourcePoint" />
            <mxPoint x="-82" y="180" as="targetPoint" />
            <Array as="points">
              <mxPoint x="-42" y="210" />
            </Array>
          </mxGeometry>
        </mxCell>
        <mxCell id="FF1rGeJrIOFZgv-gPNnW-33" value="" style="html=1;dashed=0;whiteSpace=wrap;shape=partialRectangle;right=0;left=0;" vertex="1" parent="1">
          <mxGeometry x="280" y="230" width="60" height="20" as="geometry" />
        </mxCell>
        <mxCell id="FF1rGeJrIOFZgv-gPNnW-34" value="部门信息" style="text;html=1;align=center;verticalAlign=middle;resizable=0;points=[];autosize=1;strokeColor=none;fillColor=none;" vertex="1" parent="1">
          <mxGeometry x="270" y="200" width="70" height="30" as="geometry" />
        </mxCell>
        <mxCell id="FF1rGeJrIOFZgv-gPNnW-37" value="" style="endArrow=classic;html=1;entryX=1;entryY=1;entryDx=0;entryDy=0;exitX=0.5;exitY=1;exitDx=0;exitDy=0;curved=1;" edge="1" parent="1" source="FF1rGeJrIOFZgv-gPNnW-33" target="SistrwYsHnkyrt9ZVSSs-8">
          <mxGeometry width="50" height="50" relative="1" as="geometry">
            <mxPoint x="347" y="268" as="sourcePoint" />
            <mxPoint x="260" y="250" as="targetPoint" />
            <Array as="points">
              <mxPoint x="293" y="290" />
            </Array>
          </mxGeometry>
        </mxCell>
        <mxCell id="FF1rGeJrIOFZgv-gPNnW-38" value="" style="html=1;dashed=0;whiteSpace=wrap;shape=partialRectangle;right=0;left=0;" vertex="1" parent="1">
          <mxGeometry x="360" y="350" width="60" height="20" as="geometry" />
        </mxCell>
        <mxCell id="FF1rGeJrIOFZgv-gPNnW-39" value="" style="html=1;dashed=0;whiteSpace=wrap;shape=partialRectangle;right=0;left=0;" vertex="1" parent="1">
          <mxGeometry x="280" y="470" width="60" height="20" as="geometry" />
        </mxCell>
        <mxCell id="FF1rGeJrIOFZgv-gPNnW-40" value="" style="html=1;dashed=0;whiteSpace=wrap;shape=partialRectangle;right=0;left=0;" vertex="1" parent="1">
          <mxGeometry x="120" y="550" width="60" height="20" as="geometry" />
        </mxCell>
        <mxCell id="FF1rGeJrIOFZgv-gPNnW-41" value="" style="html=1;dashed=0;whiteSpace=wrap;shape=partialRectangle;right=0;left=0;" vertex="1" parent="1">
          <mxGeometry x="-260" y="470" width="60" height="20" as="geometry" />
        </mxCell>
        <mxCell id="FF1rGeJrIOFZgv-gPNnW-42" value="" style="endArrow=classic;html=1;curved=1;entryX=0;entryY=0;entryDx=0;entryDy=0;exitX=1;exitY=0;exitDx=0;exitDy=0;" edge="1" parent="1" source="SistrwYsHnkyrt9ZVSSs-8">
          <mxGeometry width="50" height="50" relative="1" as="geometry">
            <mxPoint x="220" y="210" as="sourcePoint" />
            <mxPoint x="312" y="212" as="targetPoint" />
            <Array as="points">
              <mxPoint x="240" y="190" />
              <mxPoint x="290" y="190" />
            </Array>
          </mxGeometry>
        </mxCell>
        <mxCell id="FF1rGeJrIOFZgv-gPNnW-43" value="职称信息" style="text;html=1;align=center;verticalAlign=middle;resizable=0;points=[];autosize=1;strokeColor=none;fillColor=none;" vertex="1" parent="1">
          <mxGeometry x="355" y="320" width="70" height="30" as="geometry" />
        </mxCell>
        <mxCell id="FF1rGeJrIOFZgv-gPNnW-44" value="" style="endArrow=classic;html=1;curved=1;entryX=0;entryY=0;entryDx=0;entryDy=0;exitX=1;exitY=0;exitDx=0;exitDy=0;" edge="1" parent="1" source="SistrwYsHnkyrt9ZVSSs-9">
          <mxGeometry width="50" height="50" relative="1" as="geometry">
            <mxPoint x="310" y="330" as="sourcePoint" />
            <mxPoint x="394" y="330" as="targetPoint" />
            <Array as="points">
              <mxPoint x="320" y="310" />
              <mxPoint x="372" y="308" />
            </Array>
          </mxGeometry>
        </mxCell>
        <mxCell id="FF1rGeJrIOFZgv-gPNnW-45" value="" style="endArrow=classic;html=1;entryX=1;entryY=1;entryDx=0;entryDy=0;exitX=0.5;exitY=1;exitDx=0;exitDy=0;curved=1;" edge="1" parent="1" source="FF1rGeJrIOFZgv-gPNnW-38" target="SistrwYsHnkyrt9ZVSSs-9">
          <mxGeometry width="50" height="50" relative="1" as="geometry">
            <mxPoint x="402" y="390" as="sourcePoint" />
            <mxPoint x="320" y="408" as="targetPoint" />
            <Array as="points">
              <mxPoint x="370" y="410" />
            </Array>
          </mxGeometry>
        </mxCell>
        <mxCell id="FF1rGeJrIOFZgv-gPNnW-46" value="职务信息" style="text;html=1;align=center;verticalAlign=middle;resizable=0;points=[];autosize=1;strokeColor=none;fillColor=none;" vertex="1" parent="1">
          <mxGeometry x="275" y="440" width="70" height="30" as="geometry" />
        </mxCell>
        <mxCell id="FF1rGeJrIOFZgv-gPNnW-47" value="" style="endArrow=classic;html=1;curved=1;entryX=0;entryY=0;entryDx=0;entryDy=0;exitX=1;exitY=0;exitDx=0;exitDy=0;" edge="1" parent="1" source="SistrwYsHnkyrt9ZVSSs-3">
          <mxGeometry width="50" height="50" relative="1" as="geometry">
            <mxPoint x="230" y="454" as="sourcePoint" />
            <mxPoint x="316" y="452" as="targetPoint" />
            <Array as="points">
              <mxPoint x="242" y="432" />
              <mxPoint x="294" y="430" />
            </Array>
          </mxGeometry>
        </mxCell>
        <mxCell id="FF1rGeJrIOFZgv-gPNnW-48" value="" style="endArrow=classic;html=1;entryX=1;entryY=1;entryDx=0;entryDy=0;exitX=0.5;exitY=1;exitDx=0;exitDy=0;curved=1;" edge="1" parent="1" source="FF1rGeJrIOFZgv-gPNnW-39" target="SistrwYsHnkyrt9ZVSSs-3">
          <mxGeometry width="50" height="50" relative="1" as="geometry">
            <mxPoint x="312" y="500" as="sourcePoint" />
            <mxPoint x="230" y="518" as="targetPoint" />
            <Array as="points">
              <mxPoint x="290" y="530" />
            </Array>
          </mxGeometry>
        </mxCell>
        <mxCell id="FF1rGeJrIOFZgv-gPNnW-50" value="奖惩信息" style="text;html=1;align=center;verticalAlign=middle;resizable=0;points=[];autosize=1;strokeColor=none;fillColor=none;" vertex="1" parent="1">
          <mxGeometry x="115" y="520" width="70" height="30" as="geometry" />
        </mxCell>
        <mxCell id="FF1rGeJrIOFZgv-gPNnW-52" value="" style="endArrow=classic;html=1;curved=1;entryX=0;entryY=0;entryDx=0;entryDy=0;exitX=1;exitY=0;exitDx=0;exitDy=0;" edge="1" parent="1" source="SistrwYsHnkyrt9ZVSSs-4">
          <mxGeometry width="50" height="50" relative="1" as="geometry">
            <mxPoint x="66" y="532" as="sourcePoint" />
            <mxPoint x="154" y="532" as="targetPoint" />
            <Array as="points">
              <mxPoint x="80" y="512" />
              <mxPoint x="132" y="510" />
            </Array>
          </mxGeometry>
        </mxCell>
        <mxCell id="FF1rGeJrIOFZgv-gPNnW-53" value="" style="endArrow=classic;html=1;entryX=1;entryY=1;entryDx=0;entryDy=0;exitX=0.5;exitY=1;exitDx=0;exitDy=0;curved=1;" edge="1" parent="1" source="FF1rGeJrIOFZgv-gPNnW-40" target="SistrwYsHnkyrt9ZVSSs-4">
          <mxGeometry width="50" height="50" relative="1" as="geometry">
            <mxPoint x="166" y="580" as="sourcePoint" />
            <mxPoint x="84" y="598" as="targetPoint" />
            <Array as="points">
              <mxPoint x="130" y="610" />
            </Array>
          </mxGeometry>
        </mxCell>
        <mxCell id="FF1rGeJrIOFZgv-gPNnW-54" value="家庭信息" style="text;html=1;align=center;verticalAlign=middle;resizable=0;points=[];autosize=1;strokeColor=none;fillColor=none;" vertex="1" parent="1">
          <mxGeometry x="-265" y="440" width="70" height="30" as="geometry" />
        </mxCell>
        <mxCell id="FF1rGeJrIOFZgv-gPNnW-55" value="" style="endArrow=classic;html=1;entryX=0;entryY=0;entryDx=0;entryDy=0;curved=1;" edge="1" parent="1" target="SistrwYsHnkyrt9ZVSSs-5">
          <mxGeometry width="50" height="50" relative="1" as="geometry">
            <mxPoint x="-232" y="450" as="sourcePoint" />
            <mxPoint x="-150" y="452" as="targetPoint" />
            <Array as="points">
              <mxPoint x="-212" y="430" />
              <mxPoint x="-172" y="430" />
            </Array>
          </mxGeometry>
        </mxCell>
        <mxCell id="FF1rGeJrIOFZgv-gPNnW-57" value="" style="endArrow=classic;html=1;entryX=0.5;entryY=1;entryDx=0;entryDy=0;exitX=0;exitY=1;exitDx=0;exitDy=0;curved=1;" edge="1" parent="1" source="SistrwYsHnkyrt9ZVSSs-5" target="FF1rGeJrIOFZgv-gPNnW-41">
          <mxGeometry width="50" height="50" relative="1" as="geometry">
            <mxPoint x="-138" y="518" as="sourcePoint" />
            <mxPoint x="-220" y="500" as="targetPoint" />
            <Array as="points">
              <mxPoint x="-190" y="530" />
            </Array>
          </mxGeometry>
        </mxCell>
        <mxCell id="yq3P-vYvoEeBFozNUyLW-1" value="" style="html=1;dashed=0;whiteSpace=wrap;shape=partialRectangle;right=0;left=0;" vertex="1" parent="1">
          <mxGeometry x="-235" y="380" width="60" height="20" as="geometry" />
        </mxCell>
        <mxCell id="yq3P-vYvoEeBFozNUyLW-2" value="账号信息" style="text;html=1;align=center;verticalAlign=middle;resizable=0;points=[];autosize=1;strokeColor=none;fillColor=none;" vertex="1" parent="1">
          <mxGeometry x="-240" y="350" width="70" height="30" as="geometry" />
        </mxCell>
        <mxCell id="yq3P-vYvoEeBFozNUyLW-4" value="" style="endArrow=classic;html=1;entryX=0.017;entryY=0.628;entryDx=0;entryDy=0;curved=1;entryPerimeter=0;" edge="1" parent="1" target="4cg-yMZASIT0EC4H4Mf3-1">
          <mxGeometry width="50" height="50" relative="1" as="geometry">
            <mxPoint x="-207" y="360" as="sourcePoint" />
            <mxPoint x="-125" y="362" as="targetPoint" />
            <Array as="points">
              <mxPoint x="-140" y="340" />
            </Array>
          </mxGeometry>
        </mxCell>
        <mxCell id="yq3P-vYvoEeBFozNUyLW-5" value="" style="endArrow=classic;html=1;entryX=0.5;entryY=1;entryDx=0;entryDy=0;exitX=0.009;exitY=0.731;exitDx=0;exitDy=0;curved=1;exitPerimeter=0;" edge="1" parent="1" source="4cg-yMZASIT0EC4H4Mf3-1" target="yq3P-vYvoEeBFozNUyLW-1">
          <mxGeometry width="50" height="50" relative="1" as="geometry">
            <mxPoint x="-120" y="423" as="sourcePoint" />
            <mxPoint x="-202" y="405" as="targetPoint" />
            <Array as="points">
              <mxPoint x="-150" y="430" />
            </Array>
          </mxGeometry>
        </mxCell>
      </root>
    </mxGraphModel>
  </diagram>
</mxfile>
